<?xml version="1.0" encoding="UTF-8" standalone="no"?>
<!DOCTYPE svg PUBLIC "-//W3C//DTD SVG 1.1//EN" "http://www.w3.org/Graphics/SVG/1.1/DTD/svg11.dtd">
<svg width="100%" height="100%" viewBox="0 0 1001 795" version="1.1" xmlns="http://www.w3.org/2000/svg" xmlns:xlink="http://www.w3.org/1999/xlink" xml:space="preserve" xmlns:serif="http://www.serif.com/" style="fill-rule:evenodd;clip-rule:evenodd;stroke-linejoin:round;stroke-miterlimit:2;">
    <g transform="matrix(1.521629,0,0,1.521629,-537.227067,-186.595395)">
        <path d="M866.189,429.623L883.942,429.504C882.76,438.08 880.198,448.613 877.782,456.871C858.664,521.887 814.437,576.604 754.884,608.919C698.259,639.851 631.659,646.98 569.773,628.734C558.141,625.241 551.254,622.496 540.357,617.484C560.564,614.948 582.909,608.145 602.04,600.983C660.577,579.073 717.001,539.052 754.317,488.533C767.909,470.132 778.215,450.657 787.572,429.858C812.589,429.068 840.908,429.671 866.189,429.623Z" style="fill:url(#_Linear1);fill-rule:nonzero;"/>
    </g>
    <g transform="matrix(1.521629,0,0,1.521629,-537.227067,-186.595395)">
        <path d="M647.154,127.229C729.289,130.845 799.177,169.51 845.626,237.71C866.819,268.83 876.579,298.635 884.428,334.872C867.497,334.761 850.565,334.741 833.634,334.811L778.056,334.967C770.625,315.606 765.583,302.019 753.873,284.643C720.674,235.414 669.315,201.36 611.054,189.948C614.76,183.473 618.513,177.024 622.314,170.604C630.403,156.23 638.575,141.267 647.154,127.229Z" style="fill:rgb(248,160,36);fill-rule:nonzero;"/>
    </g>
    <g transform="matrix(1.521629,0,0,1.521629,-537.227067,-186.595395)">
        <path d="M611.054,189.948C614.76,183.473 618.513,177.024 622.314,170.604L622.96,170.804C628.247,172.393 641.143,172.152 647.568,172.561C656.436,173.176 665.268,174.238 674.029,175.743C731.536,185.871 784.886,226.656 812.557,277.526C820.97,292.992 831.189,317.293 833.634,334.811L778.056,334.967C770.625,315.606 765.583,302.019 753.873,284.643C720.674,235.414 669.315,201.36 611.054,189.948Z" style="fill:rgb(242,122,39);fill-rule:nonzero;"/>
    </g>
    <g transform="matrix(1.521629,0,0,1.521629,-537.227067,-186.595395)">
        <path d="M626.293,292.522C623.844,285.552 626.127,277.796 631.962,273.265C637.797,268.735 645.875,268.446 652.019,272.547C658.162,276.649 660.995,284.221 659.05,291.349C658.597,293.01 657.897,294.593 656.974,296.045C656.143,297.352 655.138,298.541 653.988,299.579C660.118,310.054 669.827,327.812 676.672,337.142L708.444,329.589C708.21,327.138 708.443,324.664 709.128,322.299C709.669,320.433 710.485,318.659 711.549,317.034C717.223,308.375 728.667,305.65 737.632,310.824C746.597,315.999 749.966,327.273 745.309,336.519C740.653,345.765 729.591,349.769 720.098,345.643C718.246,344.839 716.53,343.751 715.011,342.42C714.741,342.183 714.477,341.939 714.22,341.687L708.397,346.595C702.507,351.513 696.592,356.4 690.651,361.257C692.544,364.582 695.161,368.887 696.77,372.254C695.001,373.71 694.411,373.884 692.333,374.719C690.409,371.75 688.349,368.408 686.343,365.536C683.553,367.636 676.01,372.58 675.248,375.541C674.096,378.111 673.281,378.242 670.459,379.07C666.574,380.588 662.03,386.031 657.686,388.66C659.92,392.581 660.55,397.215 659.445,401.591C665.492,404.02 671.561,406.394 677.65,408.713L682.643,400.473L687.622,402.783L683.052,411.021C692.101,414.321 702.937,418.929 711.802,421.645C711.984,421.36 712.172,421.079 712.368,420.804C714.755,417.45 718.143,414.938 722.046,413.631C731.694,410.399 742.203,415.146 746.159,424.522C750.116,433.898 746.185,444.74 737.14,449.401C728.095,454.061 716.987,450.967 711.652,442.301C704.433,447.742 669.021,464.594 659.427,469.296C659.759,477.044 659.73,483.397 653.126,488.907C649.613,491.831 645.051,493.182 640.512,492.642C636.039,492.096 631.976,489.766 629.247,486.18C624.764,480.391 625.092,475.229 625.893,468.49L572.692,437.76C572.177,438.282 571.645,438.788 571.098,439.277C563.662,445.883 553.33,446.638 546.534,438.69C543.199,434.755 541.558,429.66 541.97,424.518C542.983,411.415 554.031,409.128 564.981,410.082C570.76,399.996 576.718,390.014 582.853,380.141C577.452,372.674 570.573,359.88 565.937,351.73C555.484,352.481 544.253,351.883 542.138,338.95C541.363,333.996 542.564,328.936 545.482,324.858C553.169,314.297 563.669,317.801 572.424,324.361C574.578,323.436 584.139,317.234 586.71,315.742C599.627,308.24 612.924,299.173 626.293,292.522ZM609.116,412.177C610.05,416.079 632.131,452.449 635.637,458.439C641.067,457.534 643.676,457.428 649.041,458.587C656.231,444.733 666.522,426.66 675.23,413.836C669.597,412.37 662.374,409.478 656.77,407.404C653.25,412.383 647.39,415.167 641.308,414.751C635.225,414.334 629.799,410.777 626.99,405.365C624.055,406.437 611.056,410.991 609.116,412.177ZM709.601,437.747C708.517,434.173 708.483,430.362 709.504,426.768C699.766,423.122 689.998,419.558 680.2,416.077C676.378,422.531 655.042,457.254 654.525,461.568L655.517,463.058C660.372,463.973 700.655,441.401 709.601,437.747ZM613.63,340.709C616.901,341.212 623.053,341.978 626.028,342.846L625.027,348.122C619.813,347.528 615.049,346.928 609.873,346.08C606.869,351.066 603.299,357.346 599.958,361.967C603.802,364.776 609.444,368.664 612.932,371.667C617.898,367.01 622.981,362.478 628.175,358.076L631.614,361.776L617.537,374.97C622.189,378.41 625.811,381.141 630.131,384.963C636.931,378.148 647.96,378.116 654.799,384.891C655.928,386.01 656.9,387.278 657.686,388.66C662.03,386.031 666.574,380.588 670.459,379.07C673.281,378.242 674.096,378.111 675.248,375.541C676.01,372.58 683.553,367.636 686.343,365.536C688.349,368.408 690.409,371.75 692.333,374.719C694.411,373.884 695.001,373.71 696.77,372.254C695.161,368.887 692.544,364.582 690.651,361.257C696.592,356.4 702.507,351.513 708.397,346.595L714.22,341.687C714.477,341.939 714.741,342.183 715.011,342.42C716.53,343.751 718.246,344.839 720.098,345.643C729.591,349.769 740.653,345.765 745.309,336.519C749.966,327.273 746.597,315.999 737.632,310.824C728.667,305.65 717.223,308.375 711.549,317.034C710.485,318.659 709.669,320.433 709.128,322.299C708.443,324.664 708.21,327.138 708.444,329.589L676.672,337.142C669.827,327.812 660.118,310.054 653.988,299.579C652.673,300.766 651.181,301.742 649.568,302.473C645.171,304.463 640.14,304.511 635.706,302.604L630.245,312.292C624.659,321.736 619.121,331.208 613.63,340.709ZM575.248,329.013L576.511,335.096C585.462,336.087 598.378,337.751 607.031,339.697C612.757,330.626 619.467,317.635 625.114,309.694C627.145,306.414 629.131,303.009 631.116,299.692C630.178,298.862 629.333,297.932 628.597,296.918C610.522,308.298 593.942,318.68 575.248,329.013ZM573.816,340.467C576.172,345.088 591.252,355.524 595.903,358.443L599.331,352.845L604.176,344.941C595.326,343.353 582.596,340.931 573.816,340.467ZM613.266,454.217C619.705,458.142 623.96,460.843 631.175,463.209C629.014,457.876 605.213,416.254 601.998,414.784C593.261,418.145 585.118,420.849 576.224,423.76L576.028,432.856C587.624,439.463 602.186,447.225 613.266,454.217ZM594.521,389.124L598.687,384.868C602.052,381.65 605.452,378.468 608.887,375.323C605.051,372.481 601.217,369.571 597.251,366.92C594.728,371.399 592.107,375.821 589.389,380.184L594.521,389.124ZM605.848,407.153L625.419,401.005C624.521,396.848 625.168,392.506 627.241,388.792C622.092,385.309 618.291,382.574 613.451,378.688L597.168,393.984C599.344,397.427 603.445,404.275 605.848,407.153ZM581.101,401.706C584.365,398.46 586.785,396.176 590.32,393.222C589.12,390.827 587.499,388.241 586.111,385.909C583.666,389.81 581.305,393.763 579.032,397.766C576.176,402.474 573.806,406.583 571.236,411.448C574.52,408.292 578.027,405.046 581.101,401.706ZM570.675,347.766C573.996,354.804 581.651,367.758 586.171,374.081L588.616,370.321L592.695,363.57C587.992,359.938 575.489,349.896 570.675,347.766ZM593.112,398.92C586.489,404.801 579.373,410.635 574.125,417.749C576.219,417.255 579.41,416.599 581.365,415.968C587.436,413.814 593.959,411.36 600.064,409.437C598.248,406.375 595.509,401.292 593.112,398.92Z" style="fill:rgb(32,126,189);fill-rule:nonzero;"/>
    </g>
    <g transform="matrix(1.521629,0,0,1.521629,-537.227067,-186.595395)">
        <path d="M641.751,424.415C643.85,424.032 645.877,425.376 646.342,427.459C646.807,429.542 645.543,431.62 643.48,432.166C642.073,432.538 640.574,432.111 639.575,431.051C638.575,429.991 638.236,428.47 638.69,427.086C639.144,425.702 640.318,424.677 641.751,424.415Z" style="fill:rgb(32,126,189);fill-rule:nonzero;"/>
    </g>
    <g transform="matrix(1.521629,0,0,1.521629,-537.227067,-186.595395)">
        <path d="M640.668,440.145C642.405,439.02 644.725,439.514 645.854,441.25C646.983,442.985 646.494,445.307 644.762,446.44C643.024,447.577 640.693,447.087 639.56,445.346C638.428,443.604 638.924,441.274 640.668,440.145Z" style="fill:rgb(60,174,218);fill-rule:nonzero;"/>
    </g>
    <g transform="matrix(1.521629,0,0,1.521629,-537.227067,-186.595395)">
        <path d="M628.175,358.076L631.614,361.776L617.537,374.97C615.992,374.288 614.294,372.76 612.932,371.667C617.898,367.01 622.981,362.478 628.175,358.076Z" style="fill:rgb(60,174,218);fill-rule:nonzero;"/>
    </g>
    <g transform="matrix(1.521629,0,0,1.521629,-537.227067,-186.595395)">
        <path d="M605.848,407.153L625.419,401.005C625.747,402.522 626.276,403.988 626.99,405.365C624.055,406.437 611.056,410.991 609.116,412.177C608.308,411.171 606.622,408.371 605.848,407.153Z" style="fill:rgb(60,174,218);fill-rule:nonzero;"/>
    </g>
    <g transform="matrix(1.521629,0,0,1.521629,-537.227067,-186.595395)">
        <path d="M649.568,302.473C651.181,301.742 652.673,300.766 653.988,299.579C660.118,310.054 669.827,327.812 676.672,337.142L708.444,329.589C708.21,327.138 708.443,324.664 709.128,322.299C709.669,320.433 710.485,318.659 711.549,317.034C717.223,308.375 728.667,305.65 737.632,310.824C746.597,315.999 749.966,327.273 745.309,336.519C740.653,345.765 729.591,349.769 720.098,345.643C718.246,344.839 716.53,343.751 715.011,342.42C714.741,342.183 714.477,341.939 714.22,341.687L708.397,346.595C702.507,351.513 696.592,356.4 690.651,361.257C692.544,364.582 695.161,368.887 696.77,372.254C695.001,373.71 694.411,373.884 692.333,374.719C690.409,371.75 688.349,368.408 686.343,365.536C683.553,367.636 676.01,372.58 675.248,375.541C674.096,378.111 673.281,378.242 670.459,379.07C666.574,380.588 662.03,386.031 657.686,388.66C656.9,387.278 655.928,386.01 654.799,384.891C658.449,381.189 661.959,378.076 665.844,374.625C661.795,370.48 657.119,366.184 652.897,362.153C645.145,366.463 639.165,366.108 631.614,361.776L628.175,358.076C626.666,355.027 625.89,351.438 625.027,348.122L626.028,342.846C627.651,338.254 629.707,335.22 634.093,332.785C638.069,330.546 642.776,329.988 647.166,331.235C652.671,332.822 655.98,336.618 658.676,341.452C661.94,340.567 667.252,339.626 670.701,338.914C663.827,326.691 656.461,314.735 649.568,302.473ZM673.56,343.884L660.204,347.038C658.637,351.515 659.364,352.613 656.955,357.907C661.095,361.528 666.448,367.054 670.513,370.997C675.003,367.301 679.074,363.902 683.353,359.971C680.189,354.549 676.924,349.185 673.56,343.884ZM679.8,342.347C682.32,346.853 685.203,352.312 687.944,356.59C695.692,350.281 703.646,344.304 711.046,337.626C710.492,336.683 710.018,335.696 709.63,334.674C699.929,337.354 689.616,340.169 679.8,342.347Z" style="fill:rgb(60,174,218);fill-rule:nonzero;"/>
    </g>
    <g transform="matrix(1.521629,0,0,1.521629,-537.227067,-186.595395)">
        <path d="M711.549,317.034C717.223,308.375 728.667,305.65 737.632,310.824C746.597,315.999 749.966,327.273 745.309,336.519C740.653,345.765 729.591,349.769 720.098,345.643C718.246,344.839 716.53,343.751 715.011,342.42C714.741,342.183 714.477,341.939 714.22,341.687C712.987,340.48 711.92,339.114 711.046,337.626C710.492,336.683 710.018,335.696 709.63,334.674C709.009,333.04 708.61,331.33 708.444,329.589C708.21,327.138 708.443,324.664 709.128,322.299C709.669,320.433 710.485,318.659 711.549,317.034Z" style="fill:rgb(248,160,36);fill-rule:nonzero;"/>
    </g>
    <g transform="matrix(1.521629,0,0,1.521629,-537.227067,-186.595395)">
        <path d="M626.028,342.846C627.651,338.254 629.707,335.22 634.093,332.785C638.069,330.546 642.776,329.988 647.166,331.235C652.671,332.822 655.98,336.618 658.676,341.452C658.983,342.818 659.562,345.982 660.204,347.038C658.637,351.515 659.364,352.613 656.955,357.907L652.897,362.153C645.145,366.463 639.165,366.108 631.614,361.776L628.175,358.076C626.666,355.027 625.89,351.438 625.027,348.122L626.028,342.846Z" style="fill:rgb(107,183,96);fill-rule:nonzero;"/>
    </g>
    <g transform="matrix(1.521629,0,0,1.521629,-537.227067,-186.595395)">
        <path d="M722.046,413.631C731.694,410.399 742.203,415.146 746.159,424.522C750.116,433.898 746.185,444.74 737.14,449.401C728.095,454.061 716.987,450.967 711.652,442.301C710.776,440.878 710.087,439.347 709.601,437.747C708.517,434.173 708.483,430.362 709.504,426.768C710.019,424.958 710.793,423.233 711.802,421.645C711.984,421.36 712.172,421.079 712.368,420.804C714.755,417.45 718.143,414.938 722.046,413.631Z" style="fill:rgb(242,122,39);fill-rule:nonzero;"/>
    </g>
    <g transform="matrix(1.521629,0,0,1.521629,-537.227067,-186.595395)">
        <path d="M630.131,384.963C636.931,378.148 647.96,378.116 654.799,384.891C655.928,386.01 656.9,387.278 657.686,388.66C659.92,392.581 660.55,397.215 659.445,401.591C658.919,403.677 658.012,405.647 656.77,407.404C653.25,412.383 647.39,415.167 641.308,414.751C635.225,414.334 629.799,410.777 626.99,405.365C626.276,403.988 625.747,402.522 625.419,401.005C624.521,396.848 625.168,392.506 627.241,388.792C628.024,387.389 628.996,386.1 630.131,384.963Z" style="fill:rgb(107,183,96);fill-rule:nonzero;"/>
    </g>
    <g transform="matrix(1.521629,0,0,1.521629,-537.227067,-186.595395)">
        <path d="M626.293,292.522C623.844,285.552 626.127,277.796 631.962,273.265C637.797,268.735 645.875,268.446 652.019,272.547C658.162,276.649 660.995,284.221 659.05,291.349C658.597,293.01 657.897,294.593 656.974,296.045C656.143,297.352 655.138,298.541 653.988,299.579C652.673,300.766 651.181,301.742 649.568,302.473C645.171,304.463 640.14,304.511 635.706,302.604C634.031,301.883 632.482,300.9 631.116,299.692C630.178,298.862 629.333,297.932 628.597,296.918C627.62,295.572 626.844,294.091 626.293,292.522Z" style="fill:rgb(107,183,96);fill-rule:nonzero;"/>
    </g>
    <g transform="matrix(1.521629,0,0,1.521629,-537.227067,-186.595395)">
        <path d="M631.116,299.692C632.482,300.9 634.031,301.883 635.706,302.604L630.245,312.292C629.646,310.526 629.504,310.089 628.578,308.489C627.426,308.899 626.271,309.3 625.114,309.694C627.145,306.414 629.131,303.009 631.116,299.692Z" style="fill:rgb(60,174,218);fill-rule:nonzero;"/>
    </g>
    <g transform="matrix(1.521629,0,0,1.521629,-537.227067,-186.595395)">
        <path d="M579.032,397.766L581.061,399.362L581.101,401.706C578.027,405.046 574.52,408.292 571.236,411.448C573.806,406.583 576.176,402.474 579.032,397.766Z" style="fill:url(#_Linear2);fill-rule:nonzero;"/>
    </g>
    <g transform="matrix(1.521629,0,0,1.521629,-537.227067,-186.595395)">
        <path d="M541.418,277.194L541.991,277.932C541.275,281.602 527.574,305.765 524.824,310.815C489.694,375.33 456.135,441.308 419.924,505.182C416.494,499.505 412.31,490.199 409.309,484.016C384.006,428.417 381.658,368.313 398.164,309.99C431.252,303.533 464.124,294.648 496.976,287.064C511.537,283.702 526.732,279.776 541.418,277.194Z" style="fill:rgb(32,126,189);fill-rule:nonzero;"/>
    </g>
    <g transform="matrix(1.521629,0,0,1.521629,-537.227067,-186.595395)">
        <path d="M403.594,293.139C415.591,260.826 433.935,231.243 457.546,206.135C502.103,158.073 564.085,129.915 629.586,127.978C620.915,144.38 610.99,160.188 601.667,176.226L571.371,229.345C567.195,236.721 559.442,251.54 554.685,257.912C525.991,266.579 491.206,272.07 462.237,279.78C443.235,284.286 422.676,289.365 403.594,293.139Z" style="fill:url(#_Linear3);fill-rule:nonzero;"/>
    </g>
    <g transform="matrix(1.521629,0,0,1.521629,-537.227067,-186.595395)">
        <path d="M462.237,279.78C462.699,276.212 465.545,271.201 467.528,268.115C500.144,217.353 543.277,188.992 601.667,176.226L571.371,229.345C567.195,236.721 559.442,251.54 554.685,257.912C525.991,266.579 491.206,272.07 462.237,279.78Z" style="fill:url(#_Linear4);fill-rule:nonzero;"/>
    </g>
    <g transform="matrix(1.521629,0,0,1.521629,-537.227067,-186.595395)">
        <path d="M892.443,297.577C916.933,314.818 941.532,333.576 966.044,350.964C974.429,356.912 1000.11,375.129 1006.34,381.197C1006.42,382.274 1006.61,381.912 1006.13,382.542C968.363,409.249 929.884,437.876 892.612,465.415C897.653,447.361 899.997,432.808 903.186,414.353C862.302,414.595 821.416,414.564 780.532,414.259C785.6,391.211 784.691,373.264 781.279,350.256C791.065,349.72 805.372,350.129 815.397,350.14L884.41,350.479C890.123,350.404 897.783,350.074 903.341,350.313C899.926,329.775 897.154,317.455 892.443,297.577Z" style="fill:url(#_Linear5);fill-rule:nonzero;"/>
    </g>
    <g transform="matrix(1.521629,0,0,1.521629,-537.227067,-186.595395)">
        <path d="M892.443,297.577C916.933,314.818 941.532,333.576 966.044,350.964C974.429,356.912 1000.11,375.129 1006.34,381.197C1006.42,382.274 1006.61,381.912 1006.13,382.542C1001.72,381.748 975.003,381.73 968.974,381.765C943.807,381.908 917.112,380.789 892.106,381.459L890.344,379.474C886.067,372.934 884.773,368.391 882.165,361.173L884.41,350.479C890.123,350.404 897.783,350.074 903.341,350.313C899.926,329.775 897.154,317.455 892.443,297.577Z" style="fill:rgb(60,174,218);fill-rule:nonzero;"/>
    </g>
    <g transform="matrix(1.521629,0,0,1.521629,-537.227067,-186.595395)">
        <path d="M890.344,379.474L892.106,381.459C888.273,382.019 881.032,381.769 877.292,380.765C881.035,380.021 887.701,380.469 890.344,379.474Z" style="fill:rgb(32,126,189);fill-rule:nonzero;"/>
    </g>
    <g transform="matrix(1.521629,0,0,1.521629,-537.227067,-186.595395)">
        <path d="M502.966,385.092C504.204,387.226 504.039,391.696 504.322,394.304C505.748,407.441 509.515,423.037 514.565,435.241C520.304,449.114 529.143,463.346 536.581,476.581C548.282,497.347 559.851,518.187 571.287,539.101C547.653,547.055 522.91,551.22 497.975,551.44C486.44,551.626 470.722,550.2 459.434,547.741C443.72,544.316 437.181,532.568 429.59,519.908C444.724,491.568 460.038,463.325 475.531,435.179C484.535,418.739 493.659,401.235 502.966,385.092Z" style="fill:url(#_Linear6);fill-rule:nonzero;"/>
    </g>
    <g transform="matrix(1.521629,0,0,1.521629,-537.227067,-186.595395)">
        <path d="M375.001,419.209C375.848,425.285 379.816,441.204 379.652,446.294C379.225,459.576 377.17,467.265 378.471,481.26C380.428,504.592 391.624,526.174 409.568,541.209C439.606,566.014 484.106,569.265 521.303,565.684C528.533,564.615 535.734,563.358 542.898,561.912C541.2,564.687 540.444,564.929 541.158,568.41C542.103,573.013 545.996,579.434 549.763,582.149C554.393,581 559.01,579.8 563.613,578.548C564.149,581.876 565.041,589.393 566.365,591.911C569.227,593.168 571.053,592.58 573.384,595.146C562.44,597.368 552.344,600.141 540.954,602.178C477.264,613.572 393.532,599.525 365.555,532.883C349.95,495.71 359.803,455.241 375.001,419.209Z" style="fill:url(#_Linear7);fill-rule:nonzero;"/>
    </g>
    <g transform="matrix(1.521629,0,0,1.521629,-537.227067,-186.595395)">
        <path d="M521.303,565.684C528.533,564.615 535.734,563.358 542.898,561.912C541.2,564.687 540.444,564.929 541.158,568.41C542.103,573.013 545.996,579.434 549.763,582.149C541.382,585.098 532.716,585.839 523.929,586.858C520.632,576.64 522.791,574.724 521.303,565.684Z" style="fill:rgb(59,163,124);fill-rule:nonzero;"/>
    </g>
    <g transform="matrix(1.521629,0,0,1.521629,-537.227067,-186.595395)">
        <path d="M736.431,485.696C696.565,536.887 644.242,571.089 583.277,591.865L573.384,595.146C571.053,592.58 569.227,593.168 566.365,591.911C565.041,589.393 564.149,581.876 563.613,578.548C559.01,579.8 554.393,581 549.763,582.149C545.996,579.434 542.103,573.013 541.158,568.41C540.444,564.929 541.2,564.687 542.898,561.912C564.912,556.985 586.395,550.574 606.781,540.536C616.521,535.741 627.673,527.583 637.627,523.625C644.119,521.044 658.908,520.874 666.433,519.809C692.444,516.129 716.975,502.725 736.431,485.696Z" style="fill:url(#_Linear8);fill-rule:nonzero;"/>
    </g>
    <g transform="matrix(1.521629,0,0,1.521629,-537.227067,-186.595395)">
        <path d="M563.613,578.548C573.42,576.35 583.047,573.415 592.413,569.767C598.602,567.415 600.53,566.077 607.461,563.872L607.762,564.241C599.169,567.91 579.776,575.822 571.041,577.778C574.572,581.361 580.18,585.835 582.025,590.071C582.432,591.006 582.587,591.125 583.277,591.865L573.384,595.146C571.053,592.58 569.227,593.168 566.365,591.911C565.041,589.393 564.149,581.876 563.613,578.548Z" style="fill:rgb(59,163,124);fill-rule:nonzero;"/>
    </g>
    <g transform="matrix(1.521629,0,0,1.521629,-537.227067,-186.595395)">
        <path d="M603.678,203.761C615.458,205.261 642.175,213.441 652.607,218.88C653.127,219.872 653.492,220.305 653.377,221.416C652.088,223.431 649.564,225.988 647.89,227.802C643.215,232.871 642.961,235.469 640.458,240.75C640.541,241.258 640.696,241.753 640.564,242.258C616.805,243.202 597.365,247.903 574.811,253.894C583.366,237.716 594.343,219.619 603.678,203.761Z" style="fill:rgb(32,126,189);fill-rule:nonzero;"/>
    </g>
    <g transform="matrix(1.521629,0,0,1.521629,-537.227067,-186.595395)">
        <path d="M715.011,342.42C716.53,343.751 718.246,344.839 720.098,345.643C713.927,356.573 707.659,368.058 701.114,378.705C708.184,390.291 715.161,401.934 722.046,413.631C718.143,414.938 714.755,417.45 712.368,420.804C709.544,417.335 693.87,402.535 690.377,399.485C688.996,400.113 688.576,401.317 687.622,402.783L682.643,400.473L685.947,394.399C680.658,389.375 675.372,384.471 670.459,379.07C673.281,378.242 674.096,378.111 675.248,375.541C679.796,380.642 683.936,384.646 688.842,389.347C692.217,384.139 695.97,380.648 692.333,374.719C694.411,373.884 695.001,373.71 696.77,372.254L697.66,373.091C699.697,370.916 710.724,350.354 712.345,347.043C712.737,346.784 714.626,343.128 715.011,342.42ZM692.875,393.35L712.821,413.029L714.164,414.173C713.561,409.991 701.075,389.439 697.978,385.178L692.875,393.35Z" style="fill:rgb(60,174,218);fill-rule:nonzero;"/>
    </g>
    <g transform="matrix(1.521629,0,0,1.521629,-537.227067,-186.595395)">
        <path d="M652.607,218.88C670.744,225.712 700.358,245.514 713.499,259.836C685.957,246.605 671.914,242.552 640.564,242.258C640.696,241.753 640.541,241.258 640.458,240.75C642.961,235.469 643.215,232.871 647.89,227.802C649.564,225.988 652.088,223.431 653.377,221.416C653.492,220.305 653.127,219.872 652.607,218.88Z" style="fill:rgb(60,174,218);fill-rule:nonzero;"/>
    </g>
    <g transform="matrix(1.521629,0,0,1.521629,-537.227067,-186.595395)">
        <path d="M565.794,498.662C570.057,500.213 580.059,505.956 584.957,508.255C595.477,513.191 603.688,515.888 614.629,519.524C611.841,520.864 608.684,522.683 605.928,524.178C599.143,527.394 592.304,530.495 585.414,533.48C578.656,522.967 571.728,509.67 565.794,498.662Z" style="fill:rgb(107,183,96);fill-rule:nonzero;"/>
    </g>
    <g transform="matrix(1.521629,0,0,1.521629,-537.227067,-186.595395)">
        <path d="M659.05,291.349C676.296,299.587 694.64,308.185 711.549,317.034C710.485,318.659 709.669,320.433 709.128,322.299C693.222,315.248 677.741,306.798 662.156,299.063C660.307,298.145 658.691,297.193 656.974,296.045C657.897,294.593 658.597,293.01 659.05,291.349Z" style="fill:rgb(60,174,218);fill-rule:nonzero;"/>
    </g>
    <g transform="matrix(1.521629,0,0,1.521629,-537.227067,-186.595395)">
        <path d="M736.594,384.695C740.948,384.534 745.957,384.643 750.362,384.639C750.549,387.592 751.206,396.113 749.876,398.358L736.565,398.399L736.594,384.695Z" style="fill:rgb(60,174,218);fill-rule:nonzero;"/>
    </g>
    <g transform="matrix(1.521629,0,0,1.521629,-537.227067,-186.595395)">
        <path d="M725.07,359.972C728.984,359.667 734.189,359.763 738.219,359.727L738.214,373.48L725.125,373.485L725.07,359.972Z" style="fill:rgb(60,174,218);fill-rule:nonzero;"/>
    </g>
    <g transform="matrix(1.521629,0,0,1.521629,-537.227067,-186.595395)">
        <path d="M757.311,364.406L769.706,364.362L769.636,377.445L757.361,377.415L757.311,364.406Z" style="fill:rgb(107,183,96);fill-rule:nonzero;"/>
    </g>
    <g transform="matrix(1.521629,0,0,1.521629,-537.227067,-186.595395)">
        <path d="M714.22,341.687C714.477,341.939 714.741,342.183 715.011,342.42C714.626,343.128 712.737,346.784 712.345,347.043L709.698,349.342L708.397,346.595L714.22,341.687Z" style="fill:url(#_Linear9);fill-rule:nonzero;"/>
    </g>
    <defs>
        <linearGradient id="_Linear1" x1="0" y1="0" x2="1" y2="0" gradientUnits="userSpaceOnUse" gradientTransform="matrix(38.08033,170.15735,-170.15735,38.08033,696.03436,451.52545)"><stop offset="0" style="stop-color:rgb(163,204,79);stop-opacity:1"/><stop offset="1" style="stop-color:rgb(32,165,126);stop-opacity:1"/></linearGradient>
        <linearGradient id="_Linear2" x1="0" y1="0" x2="1" y2="0" gradientUnits="userSpaceOnUse" gradientTransform="matrix(2.58484,5.51722,-5.51722,2.58484,575.82037,400.15118)"><stop offset="0" style="stop-color:white;stop-opacity:0"/><stop offset="1" style="stop-color:rgb(249,251,252);stop-opacity:0.03"/></linearGradient>
        <linearGradient id="_Linear3" x1="0" y1="0" x2="1" y2="0" gradientUnits="userSpaceOnUse" gradientTransform="matrix(-6.99011,-151.42489,151.42489,-6.99011,519.30127,285.62762)"><stop offset="0" style="stop-color:rgb(46,155,206);stop-opacity:1"/><stop offset="1" style="stop-color:rgb(70,194,237);stop-opacity:1"/></linearGradient>
        <linearGradient id="_Linear4" x1="0" y1="0" x2="1" y2="0" gradientUnits="userSpaceOnUse" gradientTransform="matrix(64.31772,34.27153,-34.27153,64.31772,498.61124,210.56604)"><stop offset="0" style="stop-color:rgb(24,114,182);stop-opacity:1"/><stop offset="1" style="stop-color:rgb(33,136,196);stop-opacity:1"/></linearGradient>
        <linearGradient id="_Linear5" x1="0" y1="0" x2="1" y2="0" gradientUnits="userSpaceOnUse" gradientTransform="matrix(6.50629,-109.76917,109.76917,6.50629,886.88745,461.62433)"><stop offset="0" style="stop-color:rgb(23,97,173);stop-opacity:1"/><stop offset="1" style="stop-color:rgb(38,142,201);stop-opacity:1"/></linearGradient>
        <linearGradient id="_Linear6" x1="0" y1="0" x2="1" y2="0" gradientUnits="userSpaceOnUse" gradientTransform="matrix(116.20077,-41.55707,41.55707,116.20077,425.04697,502.78595)"><stop offset="0" style="stop-color:rgb(27,109,180);stop-opacity:1"/><stop offset="1" style="stop-color:rgb(30,136,196);stop-opacity:1"/></linearGradient>
        <linearGradient id="_Linear7" x1="0" y1="0" x2="1" y2="0" gradientUnits="userSpaceOnUse" gradientTransform="matrix(-186.96253,37.96619,-37.96619,-186.96253,551.33875,493.6015)"><stop offset="0" style="stop-color:rgb(53,163,122);stop-opacity:1"/><stop offset="1" style="stop-color:rgb(27,110,189);stop-opacity:1"/></linearGradient>
        <linearGradient id="_Linear8" x1="0" y1="0" x2="1" y2="0" gradientUnits="userSpaceOnUse" gradientTransform="matrix(15.20929,50.56708,-50.56708,15.20929,633.51373,519.69299)"><stop offset="0" style="stop-color:rgb(123,188,92);stop-opacity:1"/><stop offset="1" style="stop-color:rgb(48,167,119);stop-opacity:1"/></linearGradient>
        <linearGradient id="_Linear9" x1="0" y1="0" x2="1" y2="0" gradientUnits="userSpaceOnUse" gradientTransform="matrix(-1.88245,-3.43964,3.43964,-1.88245,711.77423,347.91367)"><stop offset="0" style="stop-color:white;stop-opacity:0"/><stop offset="1" style="stop-color:rgb(236,249,253);stop-opacity:0.04"/></linearGradient>
    </defs>
</svg>
