<svg xmlns="http://www.w3.org/2000/svg" viewBox="-28.00 -54.00 1246.00 302.00" width="1246.00" height="302.00" font-family="DejaVu Sans, Inter, Helvetica, Arial, sans-serif">
<rect x="-28.00" y="-54.00" width="1246.00" height="302.00" fill="#ffffff"/>
<text x="0.00" y="-14.00" font-family="DejaVu Sans, Inter, Helvetica, Arial, sans-serif" font-size="13" font-weight="700" fill="#7a1338" letter-spacing="0.3">Observation — filtrer dans le spectre = convoluer dans l&#x27;espace</text>
<path d="M150.00,42.00 C179.00,42.00 179.00,42.00 208.00,42.00" fill="none" stroke="#d12f6b" stroke-width="2" stroke-linecap="round"/>
<path d="M358.00,42.00 C387.00,42.00 387.00,42.00 416.00,42.00" fill="none" stroke="#d12f6b" stroke-width="2" stroke-linecap="round"/>
<path d="M566.00,42.00 C595.00,42.00 595.00,42.00 624.00,42.00" fill="none" stroke="#d12f6b" stroke-width="2" stroke-linecap="round"/>
<path d="M774.00,42.00 C803.00,42.00 803.00,66.00 832.00,66.00" fill="none" stroke="#d12f6b" stroke-width="2" stroke-linecap="round"/>
<path d="M150.00,42.00 C190.00,42.00 190.00,200.00 222.00,200.00 L760.00,200.00 C792.00,200.00 792.00,42.00 832.00,42.00" fill="none" stroke="#d12f6b" stroke-width="2" stroke-linecap="round"/>
<path d="M982.00,42.00 C1011.00,42.00 1011.00,42.00 1040.00,42.00" fill="none" stroke="#d12f6b" stroke-width="2" stroke-linecap="round"/>
<rect x="0.00" y="2.00" width="150" height="54" rx="9" fill="#fbd7e3"/>
<rect x="0.00" y="0.00" width="150" height="54" rx="9" fill="#ffffff" stroke="#d12f6b" stroke-width="1.5"/>
<path d="M0.00,30.00 L0.00,9.00 Q0.00,0.00 9.00,0.00 L141.00,0.00 Q150.00,0.00 150.00,9.00 L150.00,30.00 Z" fill="#fde7ee"/>
<line x1="0.00" y1="30.00" x2="150.00" y2="30.00" stroke="#f0a8c2" stroke-width="1"/>
<rect x="10.00" y="11.00" width="8" height="8" rx="2" fill="#d12f6b"/>
<text x="26.00" y="19.00" font-family="DejaVu Sans, Inter, Helvetica, Arial, sans-serif" font-size="12.5" font-weight="700" fill="#7a1338">Image Loader</text>
<circle cx="150.00" cy="42.00" r="6" fill="#d12f6b"/>
<text x="137.00" y="45.50" font-family="DejaVu Sans, Inter, Helvetica, Arial, sans-serif" font-size="10.5" text-anchor="end" fill="#a85d78">image</text>
<rect x="208.00" y="2.00" width="150" height="148" rx="9" fill="#fbd7e3"/>
<rect x="208.00" y="0.00" width="150" height="148" rx="9" fill="#ffffff" stroke="#d12f6b" stroke-width="1.5"/>
<path d="M208.00,30.00 L208.00,9.00 Q208.00,0.00 217.00,0.00 L349.00,0.00 Q358.00,0.00 358.00,9.00 L358.00,30.00 Z" fill="#fde7ee"/>
<line x1="208.00" y1="30.00" x2="358.00" y2="30.00" stroke="#f0a8c2" stroke-width="1"/>
<rect x="218.00" y="11.00" width="8" height="8" rx="2" fill="#d12f6b"/>
<text x="234.00" y="19.00" font-family="DejaVu Sans, Inter, Helvetica, Arial, sans-serif" font-size="12.5" font-weight="700" fill="#7a1338">FFT</text>
<circle cx="208.00" cy="42.00" r="6" fill="#d12f6b"/>
<text x="221.00" y="45.50" font-family="DejaVu Sans, Inter, Helvetica, Arial, sans-serif" font-size="10.5" fill="#a85d78">image</text>
<circle cx="358.00" cy="42.00" r="6" fill="#d12f6b"/>
<text x="345.00" y="45.50" font-family="DejaVu Sans, Inter, Helvetica, Arial, sans-serif" font-size="10.5" text-anchor="end" fill="#a85d78">spectrum</text>
<clipPath id="clip_ft"><rect x="218.00" y="62.00" width="130.00" height="62.00" rx="6"/></clipPath>
<rect x="218.00" y="62.00" width="130.00" height="62.00" rx="6" fill="#fdeef3" stroke="#f0a8c2" stroke-width="1"/>
<g clip-path="url(#clip_ft)"><rect x="222.0" y="66.0" width="122.0" height="54.0" rx="4" fill="#e0588f" fill-opacity="0.06"/><circle cx="283.0" cy="93.0" r="22.3" fill="#e0588f" fill-opacity="0.35"/><circle cx="283.0" cy="93.0" r="14.9" fill="#e0588f" fill-opacity="0.22"/><circle cx="283.0" cy="93.0" r="8.7" fill="#e0588f" fill-opacity="0.12"/><circle cx="283.0" cy="93.0" r="3.2" fill="#e0588f"/></g>
<text x="283.00" y="136.00" font-family="DejaVu Sans, Inter, Helvetica, Arial, sans-serif" font-size="10.5" text-anchor="middle" font-style="italic" fill="#a85d78">BF au centre</text>
<rect x="416.00" y="2.00" width="150" height="180" rx="9" fill="#fbd7e3"/>
<rect x="416.00" y="0.00" width="150" height="180" rx="9" fill="#ffffff" stroke="#d12f6b" stroke-width="1.5"/>
<path d="M416.00,30.00 L416.00,9.00 Q416.00,0.00 425.00,0.00 L557.00,0.00 Q566.00,0.00 566.00,9.00 L566.00,30.00 Z" fill="#fde7ee"/>
<line x1="416.00" y1="30.00" x2="566.00" y2="30.00" stroke="#f0a8c2" stroke-width="1"/>
<rect x="426.00" y="11.00" width="8" height="8" rx="2" fill="#d12f6b"/>
<text x="442.00" y="19.00" font-family="DejaVu Sans, Inter, Helvetica, Arial, sans-serif" font-size="12.5" font-weight="700" fill="#7a1338">Spectral Filter</text>
<circle cx="416.00" cy="42.00" r="6" fill="#d12f6b"/>
<text x="429.00" y="45.50" font-family="DejaVu Sans, Inter, Helvetica, Arial, sans-serif" font-size="10.5" fill="#a85d78">spectrum</text>
<circle cx="566.00" cy="42.00" r="6" fill="#d12f6b"/>
<text x="553.00" y="45.50" font-family="DejaVu Sans, Inter, Helvetica, Arial, sans-serif" font-size="10.5" text-anchor="end" fill="#a85d78">spectrum</text>
<clipPath id="clip_sf"><rect x="426.00" y="62.00" width="130.00" height="62.00" rx="6"/></clipPath>
<rect x="426.00" y="62.00" width="130.00" height="62.00" rx="6" fill="#fdeef3" stroke="#f0a8c2" stroke-width="1"/>
<g clip-path="url(#clip_sf)"><rect x="430.0" y="66.0" width="122.0" height="54.0" rx="4" fill="#e0588f" fill-opacity="0.06"/><circle cx="491.0" cy="93.0" r="22.3" fill="#e0588f" fill-opacity="0.35"/><circle cx="491.0" cy="93.0" r="14.9" fill="#e0588f" fill-opacity="0.22"/><circle cx="491.0" cy="93.0" r="3.2" fill="#e0588f"/><circle cx="491.0" cy="93.0" r="12.9" fill="none" stroke="#fdeef3" stroke-width="4" stroke-opacity="0.85"/><circle cx="491.0" cy="93.0" r="12.9" fill="none" stroke="#e0588f" stroke-width="1.6" stroke-dasharray="4 3"/></g>
<text x="491.00" y="136.00" font-family="DejaVu Sans, Inter, Helvetica, Arial, sans-serif" font-size="10.5" text-anchor="middle" font-style="italic" fill="#a85d78">HF masquées</text>
<line x1="426.00" y1="154.00" x2="556.00" y2="154.00" stroke="#f0a8c2" stroke-width="0.8" stroke-dasharray="2 2"/>
<text x="430.00" y="168.00" font-family="DejaVu Sans, Inter, Helvetica, Arial, sans-serif" font-size="10.5" fill="#a85d78">masque passe-bas</text>
<rect x="624.00" y="2.00" width="150" height="54" rx="9" fill="#fbd7e3"/>
<rect x="624.00" y="0.00" width="150" height="54" rx="9" fill="#ffffff" stroke="#d12f6b" stroke-width="1.5"/>
<path d="M624.00,30.00 L624.00,9.00 Q624.00,0.00 633.00,0.00 L765.00,0.00 Q774.00,0.00 774.00,9.00 L774.00,30.00 Z" fill="#fde7ee"/>
<line x1="624.00" y1="30.00" x2="774.00" y2="30.00" stroke="#f0a8c2" stroke-width="1"/>
<rect x="634.00" y="11.00" width="8" height="8" rx="2" fill="#d12f6b"/>
<text x="650.00" y="19.00" font-family="DejaVu Sans, Inter, Helvetica, Arial, sans-serif" font-size="12.5" font-weight="700" fill="#7a1338">Inverse FFT</text>
<circle cx="624.00" cy="42.00" r="6" fill="#d12f6b"/>
<text x="637.00" y="45.50" font-family="DejaVu Sans, Inter, Helvetica, Arial, sans-serif" font-size="10.5" fill="#a85d78">spectrum</text>
<circle cx="774.00" cy="42.00" r="6" fill="#d12f6b"/>
<text x="761.00" y="45.50" font-family="DejaVu Sans, Inter, Helvetica, Arial, sans-serif" font-size="10.5" text-anchor="end" fill="#a85d78">image</text>
<rect x="832.00" y="2.00" width="150" height="78" rx="9" fill="#fbd7e3"/>
<rect x="832.00" y="0.00" width="150" height="78" rx="9" fill="#ffffff" stroke="#d12f6b" stroke-width="1.5"/>
<path d="M832.00,30.00 L832.00,9.00 Q832.00,0.00 841.00,0.00 L973.00,0.00 Q982.00,0.00 982.00,9.00 L982.00,30.00 Z" fill="#fde7ee"/>
<line x1="832.00" y1="30.00" x2="982.00" y2="30.00" stroke="#f0a8c2" stroke-width="1"/>
<rect x="842.00" y="11.00" width="8" height="8" rx="2" fill="#d12f6b"/>
<text x="858.00" y="19.00" font-family="DejaVu Sans, Inter, Helvetica, Arial, sans-serif" font-size="12.5" font-weight="700" fill="#7a1338">Split Half</text>
<circle cx="832.00" cy="42.00" r="6" fill="#d12f6b"/>
<text x="845.00" y="45.50" font-family="DejaVu Sans, Inter, Helvetica, Arial, sans-serif" font-size="10.5" fill="#a85d78">left</text>
<circle cx="832.00" cy="66.00" r="6" fill="#d12f6b"/>
<text x="845.00" y="69.50" font-family="DejaVu Sans, Inter, Helvetica, Arial, sans-serif" font-size="10.5" fill="#a85d78">right</text>
<circle cx="982.00" cy="42.00" r="6" fill="#d12f6b"/>
<text x="969.00" y="45.50" font-family="DejaVu Sans, Inter, Helvetica, Arial, sans-serif" font-size="10.5" text-anchor="end" fill="#a85d78">image</text>
<rect x="1040.00" y="2.00" width="150" height="54" rx="9" fill="#fbd7e3"/>
<rect x="1040.00" y="0.00" width="150" height="54" rx="9" fill="#ffffff" stroke="#d12f6b" stroke-width="1.5"/>
<path d="M1040.00,30.00 L1040.00,9.00 Q1040.00,0.00 1049.00,0.00 L1181.00,0.00 Q1190.00,0.00 1190.00,9.00 L1190.00,30.00 Z" fill="#fde7ee"/>
<line x1="1040.00" y1="30.00" x2="1190.00" y2="30.00" stroke="#f0a8c2" stroke-width="1"/>
<rect x="1050.00" y="11.00" width="8" height="8" rx="2" fill="#d12f6b"/>
<text x="1066.00" y="19.00" font-family="DejaVu Sans, Inter, Helvetica, Arial, sans-serif" font-size="12.5" font-weight="700" fill="#7a1338">Output Display</text>
<circle cx="1040.00" cy="42.00" r="6" fill="#d12f6b"/>
<text x="1053.00" y="45.50" font-family="DejaVu Sans, Inter, Helvetica, Arial, sans-serif" font-size="10.5" fill="#a85d78">image</text>
</svg>
