<svg xmlns="http://www.w3.org/2000/svg" viewBox="-28.00 -54.00 830.00 226.00" width="830.00" height="226.00" font-family="DejaVu Sans, Inter, Helvetica, Arial, sans-serif">
<rect x="-28.00" y="-54.00" width="830.00" height="226.00" fill="#ffffff"/>
<text x="0.00" y="-14.00" font-family="DejaVu Sans, Inter, Helvetica, Arial, sans-serif" font-size="13" font-weight="700" fill="#7a1338" letter-spacing="0.3">Observation — squelette : l&#x27;axe médian résume la topologie de la forme</text>
<path d="M150.00,42.00 C179.00,42.00 179.00,42.00 208.00,42.00" fill="none" stroke="#d12f6b" stroke-width="2" stroke-linecap="round"/>
<path d="M358.00,42.00 C387.00,42.00 387.00,42.00 416.00,42.00" fill="none" stroke="#d12f6b" stroke-width="2" stroke-linecap="round"/>
<path d="M566.00,42.00 C595.00,42.00 595.00,42.00 624.00,42.00" fill="none" stroke="#d12f6b" stroke-width="2" stroke-linecap="round"/>
<rect x="0.00" y="2.00" width="150" height="54" rx="9" fill="#fbd7e3"/>
<rect x="0.00" y="0.00" width="150" height="54" rx="9" fill="#ffffff" stroke="#d12f6b" stroke-width="1.5"/>
<path d="M0.00,30.00 L0.00,9.00 Q0.00,0.00 9.00,0.00 L141.00,0.00 Q150.00,0.00 150.00,9.00 L150.00,30.00 Z" fill="#fde7ee"/>
<line x1="0.00" y1="30.00" x2="150.00" y2="30.00" stroke="#f0a8c2" stroke-width="1"/>
<rect x="10.00" y="11.00" width="8" height="8" rx="2" fill="#d12f6b"/>
<text x="26.00" y="19.00" font-family="DejaVu Sans, Inter, Helvetica, Arial, sans-serif" font-size="12.5" font-weight="700" fill="#7a1338">Image Loader</text>
<circle cx="150.00" cy="42.00" r="6" fill="#d12f6b"/>
<text x="137.00" y="45.50" font-family="DejaVu Sans, Inter, Helvetica, Arial, sans-serif" font-size="10.5" text-anchor="end" fill="#a85d78">image</text>
<rect x="208.00" y="2.00" width="150" height="54" rx="9" fill="#fbd7e3"/>
<rect x="208.00" y="0.00" width="150" height="54" rx="9" fill="#ffffff" stroke="#d12f6b" stroke-width="1.5"/>
<path d="M208.00,30.00 L208.00,9.00 Q208.00,0.00 217.00,0.00 L349.00,0.00 Q358.00,0.00 358.00,9.00 L358.00,30.00 Z" fill="#fde7ee"/>
<line x1="208.00" y1="30.00" x2="358.00" y2="30.00" stroke="#f0a8c2" stroke-width="1"/>
<rect x="218.00" y="11.00" width="8" height="8" rx="2" fill="#d12f6b"/>
<text x="234.00" y="19.00" font-family="DejaVu Sans, Inter, Helvetica, Arial, sans-serif" font-size="12.5" font-weight="700" fill="#7a1338">Threshold</text>
<circle cx="208.00" cy="42.00" r="6" fill="#d12f6b"/>
<text x="221.00" y="45.50" font-family="DejaVu Sans, Inter, Helvetica, Arial, sans-serif" font-size="10.5" fill="#a85d78">image</text>
<circle cx="358.00" cy="42.00" r="6" fill="#d12f6b"/><circle cx="358.00" cy="42.00" r="2.70" fill="#ffffff"/>
<text x="345.00" y="45.50" font-family="DejaVu Sans, Inter, Helvetica, Arial, sans-serif" font-size="10.5" text-anchor="end" fill="#a85d78">mask</text>
<rect x="416.00" y="2.00" width="150" height="144" rx="9" fill="#fbd7e3"/>
<rect x="416.00" y="0.00" width="150" height="144" rx="9" fill="#ffffff" stroke="#d12f6b" stroke-width="1.5"/>
<path d="M416.00,30.00 L416.00,9.00 Q416.00,0.00 425.00,0.00 L557.00,0.00 Q566.00,0.00 566.00,9.00 L566.00,30.00 Z" fill="#fde7ee"/>
<line x1="416.00" y1="30.00" x2="566.00" y2="30.00" stroke="#f0a8c2" stroke-width="1"/>
<rect x="426.00" y="11.00" width="8" height="8" rx="2" fill="#d12f6b"/>
<text x="442.00" y="19.00" font-family="DejaVu Sans, Inter, Helvetica, Arial, sans-serif" font-size="12.5" font-weight="700" fill="#7a1338">Skeleton</text>
<circle cx="416.00" cy="42.00" r="6" fill="#d12f6b"/><circle cx="416.00" cy="42.00" r="2.70" fill="#ffffff"/>
<text x="429.00" y="45.50" font-family="DejaVu Sans, Inter, Helvetica, Arial, sans-serif" font-size="10.5" fill="#a85d78">mask</text>
<circle cx="566.00" cy="42.00" r="6" fill="#d12f6b"/><circle cx="566.00" cy="42.00" r="2.70" fill="#ffffff"/>
<text x="553.00" y="45.50" font-family="DejaVu Sans, Inter, Helvetica, Arial, sans-serif" font-size="10.5" text-anchor="end" fill="#a85d78">mask</text>
<clipPath id="clip_sk"><rect x="426.00" y="62.00" width="130.00" height="58.00" rx="6"/></clipPath>
<rect x="426.00" y="62.00" width="130.00" height="58.00" rx="6" fill="#fdeef3" stroke="#f0a8c2" stroke-width="1"/>
<g clip-path="url(#clip_sk)"><rect x="440.3" y="80.6" width="44.2" height="20.8" rx="2" fill="#e0588f" fill-opacity="0.7"/><rect x="452.0" y="68.9" width="20.8" height="44.2" rx="2" fill="#e0588f" fill-opacity="0.7"/><line x1="498.8" y1="91.0" x2="543.0" y2="91.0" stroke="#e0588f" stroke-width="1.5"/><line x1="520.9" y1="68.9" x2="520.9" y2="113.1" stroke="#e0588f" stroke-width="1.5"/><line x1="491.0" y1="67.0" x2="491.0" y2="115.0" stroke="#e0588f" stroke-width="1.2" stroke-dasharray="3 3"/></g>
<text x="491.00" y="132.00" font-family="DejaVu Sans, Inter, Helvetica, Arial, sans-serif" font-size="10.5" text-anchor="middle" font-style="italic" fill="#a85d78">épais → squelette 1 px</text>
<rect x="624.00" y="2.00" width="150" height="54" rx="9" fill="#fbd7e3"/>
<rect x="624.00" y="0.00" width="150" height="54" rx="9" fill="#ffffff" stroke="#d12f6b" stroke-width="1.5"/>
<path d="M624.00,30.00 L624.00,9.00 Q624.00,0.00 633.00,0.00 L765.00,0.00 Q774.00,0.00 774.00,9.00 L774.00,30.00 Z" fill="#fde7ee"/>
<line x1="624.00" y1="30.00" x2="774.00" y2="30.00" stroke="#f0a8c2" stroke-width="1"/>
<rect x="634.00" y="11.00" width="8" height="8" rx="2" fill="#d12f6b"/>
<text x="650.00" y="19.00" font-family="DejaVu Sans, Inter, Helvetica, Arial, sans-serif" font-size="12.5" font-weight="700" fill="#7a1338">Output Display</text>
<circle cx="624.00" cy="42.00" r="6" fill="#d12f6b"/>
<text x="637.00" y="45.50" font-family="DejaVu Sans, Inter, Helvetica, Arial, sans-serif" font-size="10.5" fill="#a85d78">image</text>
</svg>
