<svg xmlns="http://www.w3.org/2000/svg" viewBox="-30 -56 858 228" width="858" height="228" font-family="ui-sans-serif, -apple-system, 'Segoe UI', Roboto, sans-serif">
<rect x="-30" y="-56" width="858" height="228" fill="#ffffff"/>
<text x="0" y="-32" font-size="14" font-weight="600" fill="#7a1330">Observation 14.1 — PSNR : décalage d&#x27;1 px invisible à l&#x27;œil, score catastrophique</text>
<path d="M158.0,53.0 C289.0,53.0 289.0,79.0 420.0,79.0" fill="none" stroke="#c8607a" stroke-width="2" stroke-linecap="round"/>
<path d="M158.0,53.0 C184.0,53.0 184.0,119.0 210.0,119.0" fill="none" stroke="#c8607a" stroke-width="2" stroke-linecap="round"/>
<path d="M368.0,119.0 C394.0,119.0 394.0,53.0 420.0,53.0" fill="none" stroke="#c8607a" stroke-width="2" stroke-linecap="round"/>
<path d="M585.0,105.0 C612.5,105.0 612.5,53.0 640.0,53.0" fill="none" stroke="#c8607a" stroke-width="2" stroke-linecap="round"/>
<path d="M585.0,79.0 C612.5,79.0 612.5,119.0 640.0,119.0" fill="none" stroke="#c8607a" stroke-width="2" stroke-linecap="round"/>
<rect x="0" y="0" width="158" height="76" rx="10" fill="#fdf3f5" stroke="#7a1330" stroke-width="1.5"/>
<path d="M0,30 L0,10 Q0,0 10,0 L148,0 Q158,0 158,10 L158,30 Z" fill="#f3d3da" stroke="#7a1330" stroke-width="1.5"/>
<text x="79" y="20" font-size="12.5" font-weight="600" text-anchor="middle" fill="#7a1330">Image File</text>
<circle cx="158.0" cy="53.0" r="5.5" fill="#b51d44"/>
<text x="146" y="57" font-size="11" text-anchor="end" fill="#9a5566">main</text>
<rect x="210" y="66" width="158" height="76" rx="10" fill="#fdf3f5" stroke="#7a1330" stroke-width="1.5"/>
<path d="M210,96 L210,76 Q210,66 220,66 L358,66 Q368,66 368,76 L368,96 Z" fill="#f3d3da" stroke="#7a1330" stroke-width="1.5"/>
<text x="289" y="86" font-size="12.5" font-weight="600" text-anchor="middle" fill="#7a1330">Offset Shift</text>
<circle cx="210.0" cy="119.0" r="5.5" fill="#b51d44"/>
<text x="222" y="123" font-size="11" fill="#9a5566">image</text>
<circle cx="368.0" cy="119.0" r="5.5" fill="#b51d44"/>
<text x="356" y="123" font-size="11" text-anchor="end" fill="#9a5566">main</text>
<rect x="420" y="0" width="165" height="128" rx="10" fill="#fdf3f5" stroke="#7a1330" stroke-width="1.5"/>
<path d="M420,30 L420,10 Q420,0 430,0 L575,0 Q585,0 585,10 L585,30 Z" fill="#f3d3da" stroke="#7a1330" stroke-width="1.5"/>
<text x="502" y="20" font-size="12.5" font-weight="600" text-anchor="middle" fill="#7a1330">SSIM / PSNR</text>
<circle cx="420.0" cy="53.0" r="5.5" fill="#b51d44"/>
<text x="432" y="57" font-size="11" fill="#9a5566">image</text>
<circle cx="420.0" cy="79.0" r="5.5" fill="#b51d44"/>
<text x="432" y="83" font-size="11" fill="#9a5566">reference</text>
<circle cx="585.0" cy="53.0" r="5.5" fill="#b51d44"/>
<text x="573" y="57" font-size="11" text-anchor="end" fill="#9a5566">main</text>
<rect x="579.5" y="73.5" width="11.0" height="11.0" rx="1" fill="#b51d44"/>
<text x="573" y="83" font-size="11" text-anchor="end" fill="#9a5566">ssim</text>
<rect x="579.5" y="99.5" width="11.0" height="11.0" rx="1" fill="#b51d44"/>
<text x="573" y="109" font-size="11" text-anchor="end" fill="#9a5566">psnr</text>
<rect x="640" y="0" width="158" height="76" rx="10" fill="#fdf3f5" stroke="#7a1330" stroke-width="1.5"/>
<path d="M640,30 L640,10 Q640,0 650,0 L788,0 Q798,0 798,10 L798,30 Z" fill="#f3d3da" stroke="#7a1330" stroke-width="1.5"/>
<text x="719" y="20" font-size="12.5" font-weight="600" text-anchor="middle" fill="#7a1330">Display</text>
<rect x="634.5" y="47.5" width="11.0" height="11.0" rx="1" fill="#b51d44"/>
<text x="652" y="57" font-size="11" fill="#9a5566">value</text>
<rect x="640" y="66" width="158" height="76" rx="10" fill="#fdf3f5" stroke="#7a1330" stroke-width="1.5"/>
<path d="M640,96 L640,76 Q640,66 650,66 L788,66 Q798,66 798,76 L798,96 Z" fill="#f3d3da" stroke="#7a1330" stroke-width="1.5"/>
<text x="719" y="86" font-size="12.5" font-weight="600" text-anchor="middle" fill="#7a1330">Display</text>
<rect x="634.5" y="113.5" width="11.0" height="11.0" rx="1" fill="#b51d44"/>
<text x="652" y="123" font-size="11" fill="#9a5566">value</text>
</svg>