<svg xmlns="http://www.w3.org/2000/svg" width="380" height="288" viewBox="0 0 380 288" font-family="DejaVu Sans, ui-sans-serif, -apple-system, 'Segoe UI', Roboto, sans-serif">
  <rect x="1.5" y="1.5" width="377" height="285" rx="14" fill="#fdf3f5" stroke="#7a1330" stroke-width="1.6"/>
  <path d="M 1.5 15.5 Q 1.5 1.5 15.5 1.5 L 364.5 1.5 Q 378.5 1.5 378.5 15.5 L 378.5 40 L 1.5 40 Z" fill="#f3d3da" stroke="none"/>
  <line x1="1.5" y1="40" x2="378.5" y2="40" stroke="#7a1330" stroke-width="1.2"/>
  <text x="20" y="26" font-size="17" font-weight="700" fill="#7a1330">a · b</text>
  <text x="362" y="25" font-size="12.5" font-style="italic" fill="#9a5566" text-anchor="end">accord brut = part alignée</text>
    <line x1="64.8" y1="237.5" x2="316.0" y2="237.5" stroke="#7a1330" stroke-width="2.8" marker-end="url(#ar)"/>
    <line x1="64.8" y1="237.5" x2="215.6" y2="100.4" stroke="#c8607a" stroke-width="2.8" marker-end="url(#ar2)"/>
    <line x1="215.6" y1="100.4" x2="215.6" y2="237.5" stroke="#b51d44" stroke-width="1.3" stroke-dasharray="4 3"/>
    <line x1="64.8" y1="237.5" x2="215.6" y2="237.5" stroke="#b51d44" stroke-width="5" stroke-linecap="round" opacity="0.85"/>
    <text x="221.6" y="98.4" font-size="14" fill="#c8607a" text-anchor="start" font-weight="700">b</text>
    <text x="314.0" y="255.5" font-size="14" fill="#7a1330" text-anchor="end" font-weight="700">a</text>
    <text x="140.2" y="257.5" font-size="11" fill="#b51d44" text-anchor="middle" font-weight="600">ombre = |b|·cos θ</text>
    <defs><marker id="ar" markerWidth="9" markerHeight="9" refX="7" refY="4.5" orient="auto"><path d="M0,1 L8,4.5 L0,8 Z" fill="#7a1330"/></marker><marker id="ar2" markerWidth="9" markerHeight="9" refX="7" refY="4.5" orient="auto"><path d="M0,1 L8,4.5 L0,8 Z" fill="#c8607a"/></marker></defs>
</svg>